<?xml version='1.0' encoding='UTF-8' standalone='no'?>
<!-- Created with Fritzing (https://fritzing.org/) -->
<svg xmlns="http://www.w3.org/2000/svg" baseProfile="tiny" height="1.51153in" version="1.2" viewBox="0 0 420.054 108.83" width="5.83408in" x="0in"  xmlns:svg="http://www.w3.org/2000/svg" y="0in">
 <g id="watermark" >
  <g >
   <g >
    <path d="M395.322,102.63c-0.604,0,-1.131,0.325,-1.422,0.809l-2.796,0l3.96,-4.071c0.146,-0.146,0.289,-0.322,0.428,-0.521c0.149,-0.222,0.228,-0.479,0.228,-0.768c0,-0.279,-0.097,-0.518,-0.287,-0.71c-0.19,-0.188,-0.444,-0.287,-0.754,-0.287l-4.636,0c-0.305,0,-0.555,0.06,-0.742,0.17c-0.219,0.13,-0.33,0.368,-0.33,0.707c0,0.329,0.111,0.562,0.33,0.692c0.188,0.111,0.438,0.168,0.742,0.168l3.148,0l-3.974,4.086c-0.146,0.147,-0.289,0.315,-0.425,0.504c-0.153,0.212,-0.23,0.472,-0.23,0.771c0,0.28,0.096,0.521,0.288,0.711c0.188,0.188,0.442,0.285,0.754,0.285l4.315,0c0.293,0.467,0.812,0.776,1.4,0.776c0.916,0,1.66,-0.744,1.66,-1.661C396.981,103.375,396.236,102.63,395.322,102.63zM395.322,104.893c-0.334,0,-0.604,-0.271,-0.604,-0.604c0,-0.333,0.27,-0.604,0.604,-0.604c0.332,0,0.604,0.271,0.604,0.604C395.925,104.624,395.654,104.893,395.322,104.893z" fill="#8C8C8C" />
    <path d="M378.379,92.588c-0.914,0,-1.659,0.745,-1.659,1.66c0,0.916,0.745,1.66,1.659,1.66s1.658,-0.744,1.658,-1.66C380.039,93.333,379.295,92.588,378.379,92.588zM378.38,94.851c-0.333,0,-0.604,-0.27,-0.604,-0.603s0.271,-0.603,0.604,-0.603c0.331,0,0.604,0.27,0.604,0.603S378.711,94.851,378.38,94.851z" fill="#8C8C8C" />
    <path d="M386.9,97.25c-0.193,-0.111,-0.439,-0.169,-0.732,-0.169l-1.465,0L384.703,94.559c0,-0.292,-0.057,-0.538,-0.166,-0.729C384.447,93.673,384.254,93.488,383.844,93.488c-0.34,0,-0.578,0.116,-0.709,0.342c-0.109,0.193,-0.167,0.438,-0.167,0.729l0,2.521l-0.481,0c-0.295,0,-0.539,0.06,-0.731,0.169c-0.228,0.129,-0.341,0.368,-0.341,0.708c0,0.412,0.185,0.603,0.341,0.692c0.192,0.111,0.438,0.168,0.731,0.168l0.481,0l0,4.362c0,0.277,0.026,0.533,0.081,0.768c0.056,0.246,0.154,0.464,0.298,0.645c0.146,0.186,0.345,0.332,0.595,0.436c0.241,0.098,0.555,0.146,0.93,0.146l0.896,0c0.292,0,0.539,-0.054,0.731,-0.166c0.154,-0.089,0.341,-0.281,0.341,-0.693c0,-0.338,-0.114,-0.578,-0.341,-0.709c-0.192,-0.109,-0.439,-0.168,-0.731,-0.168l-0.821,0c-0.138,0,-0.19,-0.019,-0.207,-0.024c-0.014,-0.034,-0.035,-0.103,-0.035,-0.231L384.705,98.818l1.465,0c0.295,0,0.541,-0.057,0.734,-0.168c0.152,-0.09,0.34,-0.28,0.34,-0.692C387.24,97.618,387.127,97.379,386.9,97.25z" fill="#8C8C8C" />
    <path d="M378.445,97.08l-1.191,0c-0.292,0,-0.538,0.059,-0.731,0.169c-0.226,0.129,-0.341,0.368,-0.341,0.708c0,0.412,0.188,0.604,0.341,0.691c0.193,0.113,0.439,0.168,0.731,0.168l0.544,0l0,5.362c0,0.293,0.057,0.539,0.167,0.73c0.131,0.227,0.367,0.341,0.708,0.341c0.411,0,0.604,-0.187,0.692,-0.341c0.111,-0.191,0.168,-0.438,0.168,-0.73L379.533,98.168c0,-0.386,-0.084,-0.656,-0.256,-0.83C379.102,97.166,378.832,97.08,378.445,97.08z" fill="#8C8C8C" />
    <path d="M374.61,97.25c-0.193,-0.111,-0.44,-0.169,-0.732,-0.169l-0.604,0c-0.25,0,-0.498,0.063,-0.734,0.187c-0.226,0.119,-0.433,0.271,-0.616,0.453l-0.644,0.604l0,-0.247c0,-0.291,-0.055,-0.538,-0.168,-0.729c-0.128,-0.228,-0.368,-0.34,-0.707,-0.34c-0.41,0,-0.604,0.184,-0.693,0.34c-0.11,0.191,-0.167,0.438,-0.167,0.729l0,4.801c-0.475,0.293,-0.791,0.816,-0.791,1.412c0,0.917,0.745,1.661,1.658,1.661c0.916,0,1.66,-0.744,1.66,-1.661c0,-0.596,-0.317,-1.119,-0.792,-1.412l0,-2.21l1.738,-1.564c0.1,-0.09,0.199,-0.164,0.297,-0.217c0.084,-0.045,0.174,-0.067,0.274,-0.067l0.288,0c0.292,0,0.539,-0.056,0.732,-0.169c0.155,-0.088,0.339,-0.279,0.339,-0.691C374.95,97.618,374.835,97.379,374.61,97.25zM370.411,104.893c-0.332,0,-0.603,-0.271,-0.603,-0.604c0,-0.333,0.271,-0.604,0.603,-0.604c0.333,0,0.604,0.271,0.604,0.604C371.015,104.624,370.744,104.893,370.411,104.893z" fill="#8C8C8C" />
    <path d="M367.894,93.731c-0.193,-0.111,-0.44,-0.167,-0.731,-0.167l-0.59,0c-0.2,0,-0.389,0.004,-0.562,0.016c-0.176,0.009,-0.345,0.035,-0.506,0.07c-0.168,0.041,-0.336,0.109,-0.496,0.202c-0.158,0.093,-0.319,0.222,-0.48,0.382c-0.334,0.314,-0.554,0.656,-0.652,1.017c-0.094,0.348,-0.143,0.735,-0.143,1.151l0,0.678l-0.483,0c-0.292,0,-0.539,0.059,-0.73,0.169c-0.227,0.13,-0.342,0.369,-0.342,0.708c0,0.412,0.185,0.604,0.341,0.693c0.191,0.111,0.438,0.166,0.73,0.166l0.483,0l0,5.362c0,0.293,0.057,0.539,0.167,0.73c0.13,0.227,0.367,0.341,0.708,0.341c0.411,0,0.603,-0.187,0.692,-0.341c0.111,-0.191,0.168,-0.438,0.168,-0.73l0,-5.36l0.92,0c0.293,0,0.54,-0.057,0.732,-0.168c0.155,-0.09,0.34,-0.28,0.34,-0.692c0,-0.34,-0.114,-0.579,-0.34,-0.708c-0.189,-0.111,-0.436,-0.17,-0.729,-0.17l-0.92,0l0,-0.678c0,-0.218,0.019,-0.41,0.056,-0.571c0.032,-0.141,0.103,-0.261,0.218,-0.367l0.002,-0.004l0.002,-0.002c0.082,-0.082,0.176,-0.126,0.29,-0.136c0.15,-0.015,0.339,-0.022,0.564,-0.022l0.56,0c0.291,0,0.539,-0.058,0.731,-0.168c0.154,-0.088,0.339,-0.281,0.339,-0.693C368.234,94.1,368.119,93.861,367.894,93.731z" fill="#8C8C8C" />
    <path d="M419.887,97.348c-0.089,-0.156,-0.282,-0.34,-0.693,-0.34c-0.339,0,-0.578,0.113,-0.707,0.34c-0.078,0.133,-0.127,0.293,-0.152,0.477l-0.021,-0.021c-0.216,-0.236,-0.466,-0.42,-0.747,-0.539c-0.277,-0.119,-0.563,-0.183,-0.849,-0.183l-0.709,0c-0.249,0,-0.466,0.015,-0.64,0.041c-0.182,0.026,-0.352,0.074,-0.51,0.14c-0.158,0.066,-0.313,0.15,-0.459,0.254c-0.139,0.097,-0.303,0.226,-0.486,0.377c-0.188,0.156,-0.342,0.302,-0.463,0.434c-0.127,0.141,-0.23,0.293,-0.306,0.455c-0.069,0.16,-0.122,0.337,-0.147,0.523c-0.026,0.178,-0.041,0.391,-0.041,0.631l0,2.386c0,0.24,0.015,0.451,0.041,0.631c0.025,0.188,0.078,0.361,0.147,0.521c0.074,0.164,0.179,0.318,0.306,0.457c0.119,0.129,0.274,0.274,0.463,0.433c0.186,0.153,0.35,0.28,0.486,0.379c0.146,0.103,0.299,0.188,0.459,0.254c0.158,0.065,0.329,0.112,0.51,0.14c0.174,0.026,0.389,0.039,0.64,0.039l0.709,0c0.298,0,0.591,-0.066,0.87,-0.199c0.244,-0.114,0.492,-0.291,0.73,-0.523l0,1.434c0,0.18,-0.025,0.334,-0.072,0.465c-0.043,0.119,-0.159,0.258,-0.344,0.406c-0.154,0.127,-0.309,0.217,-0.457,0.264c-0.15,0.049,-0.341,0.074,-0.563,0.074l-2.203,0c-0.293,0,-0.538,0.055,-0.732,0.166c-0.152,0.088,-0.34,0.282,-0.34,0.692c0,0.341,0.115,0.579,0.34,0.71c0.194,0.109,0.439,0.167,0.732,0.167l2.326,0c0.247,0,0.463,-0.015,0.638,-0.041c0.179,-0.026,0.351,-0.073,0.513,-0.14c0.153,-0.064,0.31,-0.15,0.455,-0.254c0.143,-0.101,0.305,-0.227,0.487,-0.379c0.185,-0.153,0.343,-0.299,0.463,-0.431c0.128,-0.141,0.229,-0.294,0.304,-0.456c0.071,-0.162,0.123,-0.338,0.148,-0.523c0.025,-0.182,0.041,-0.393,0.041,-0.631l0,-7.898C420.054,97.786,420,97.539,419.887,97.348zM418.318,101.808c0,0.188,-0.062,0.35,-0.188,0.49c-0.15,0.172,-0.394,0.403,-0.716,0.686l-0.002,0.003l-0.002,0.004c-0.139,0.13,-0.291,0.237,-0.453,0.325c-0.148,0.082,-0.325,0.121,-0.526,0.121L416.13,103.437c-0.222,0,-0.41,-0.021,-0.563,-0.072c-0.148,-0.049,-0.301,-0.137,-0.453,-0.264c-0.231,-0.186,-0.315,-0.322,-0.346,-0.404c-0.049,-0.131,-0.072,-0.285,-0.072,-0.465l0,-2.206c0,-0.18,0.023,-0.336,0.072,-0.467c0.029,-0.082,0.113,-0.217,0.346,-0.403c0.152,-0.127,0.305,-0.216,0.453,-0.265c0.153,-0.049,0.342,-0.072,0.563,-0.072l0.301,0c0.212,0,0.388,0.037,0.526,0.113c0.152,0.082,0.308,0.191,0.457,0.324c0.322,0.293,0.564,0.529,0.716,0.7c0.128,0.146,0.188,0.304,0.188,0.492L418.318,101.808z" fill="#8C8C8C" />
    <path d="M399.908,92.588c-0.914,0,-1.66,0.745,-1.66,1.66c0,0.916,0.746,1.66,1.66,1.66s1.66,-0.744,1.66,-1.66C401.568,93.333,400.822,92.588,399.908,92.588zM399.908,94.851c-0.332,0,-0.604,-0.27,-0.604,-0.603s0.271,-0.603,0.604,-0.603s0.604,0.27,0.604,0.603C400.512,94.581,400.24,94.851,399.908,94.851z" fill="#8C8C8C" />
    <path d="M410.594,102.856l-0.107,-3.419c-0.011,-0.178,-0.021,-0.338,-0.031,-0.489c-0.01,-0.162,-0.037,-0.322,-0.082,-0.476c-0.045,-0.158,-0.11,-0.309,-0.198,-0.453c-0.093,-0.146,-0.216,-0.289,-0.37,-0.42c-0.225,-0.192,-0.443,-0.334,-0.646,-0.416c-0.207,-0.084,-0.461,-0.127,-0.754,-0.127l-1.012,0c-0.259,0,-0.501,0.058,-0.716,0.164c-0.197,0.098,-0.39,0.203,-0.572,0.315l-0.003,0.002l-0.003,0.003l-0.837,0.555l0,-0.041c0,-0.291,-0.057,-0.539,-0.168,-0.733c-0.129,-0.226,-0.367,-0.339,-0.707,-0.339c-0.411,0,-0.604,0.185,-0.693,0.339c-0.109,0.194,-0.168,0.438,-0.168,0.733l0,6.099c0,0.295,0.059,0.539,0.168,0.734c0.09,0.153,0.282,0.338,0.693,0.338c0.34,0,0.578,-0.114,0.707,-0.338c0.111,-0.195,0.168,-0.439,0.168,-0.734L405.263,100.118l1.953,-1.215c0.04,-0.024,0.082,-0.048,0.121,-0.063c0.031,-0.016,0.07,-0.025,0.115,-0.031c0.049,-0.012,0.117,-0.016,0.195,-0.016l0.362,0c0.188,0,0.334,0.021,0.435,0.059c0.082,0.029,0.143,0.076,0.18,0.143c0.05,0.078,0.08,0.18,0.098,0.303c0.02,0.139,0.034,0.309,0.045,0.504l0.096,3.097c-0.457,0.297,-0.762,0.811,-0.762,1.394c0,0.917,0.746,1.661,1.66,1.661c0.916,0,1.66,-0.744,1.66,-1.661C411.42,103.681,411.087,103.143,410.594,102.856zM409.76,104.893c-0.334,0,-0.602,-0.271,-0.602,-0.604c0,-0.333,0.268,-0.604,0.602,-0.604c0.333,0,0.604,0.271,0.604,0.604C410.365,104.624,410.093,104.893,409.76,104.893z" fill="#8C8C8C" />
    <path d="M399.971,97.08l-1.193,0c-0.293,0,-0.539,0.059,-0.731,0.169c-0.226,0.129,-0.341,0.368,-0.341,0.708c0,0.412,0.186,0.604,0.341,0.691c0.192,0.113,0.438,0.168,0.731,0.168l0.545,0l0,5.362c0,0.293,0.055,0.539,0.168,0.73c0.127,0.227,0.365,0.341,0.707,0.341c0.41,0,0.604,-0.187,0.691,-0.341c0.111,-0.191,0.17,-0.438,0.17,-0.73L401.059,98.168c0,-0.386,-0.085,-0.656,-0.259,-0.83C400.628,97.166,400.355,97.08,399.971,97.08z" fill="#8C8C8C" />
   </g>
  </g>
 </g>
 <g partID="855151290">
  <g transform="translate(86.318,52.4083)">
   <g transform="matrix(-1,0,0,-1,0,0)">
    <g id="schematic" >
     <line fill="none" id="connector0pin" stroke="#787878" stroke-linecap="round" stroke-linejoin="round" stroke-width="0.699999" x1="0.349999" x2="13.7"  y1="3.6" y2="3.6"/>
     <g height="0.699999" id="connector0terminal" width="0" x="0"  y="3.25"/>
     <circle cx="17.3" cy="3.6" fill="none" r="2.9" stroke="#787878" stroke-width="0.699999" />
     <line fill="none" id="connector1pin" stroke="#787878" stroke-linecap="round" stroke-linejoin="round" stroke-width="0.699999" x1="0.349999" x2="13.7"  y1="10.8" y2="10.8"/>
     <g height="0.699999" id="connector1terminal" width="0" x="0"  y="10.45"/>
     <circle cx="17.3" cy="10.8" fill="none" r="2.9" stroke="#787878" stroke-width="0.699999" />
    </g>
   </g>
  </g>
 </g>
 <g partID="855152830">
  <g transform="translate(100.033,37.6408)">
   <g transform="matrix(1,0,0,1,0,0)">
    <g id="schematic">
     <g>
      <line fill="none" stroke="#000000" stroke-linecap="round" stroke-width="0.5" x1="14.4" x2="14.4" y1="0.36" y2="3.96"/>
      <polygon fill="#FFFFFF" points="14.4,3.96,7.2,7.56,7.2,0.36" stroke="#000000" stroke-linecap="round" stroke-linejoin="round" stroke-width="0.75"/>
      <line fill="none" stroke="#000000" stroke-linecap="round" stroke-width="0.5" x1="14.4" x2="14.4" y1="3.96" y2="7.56"/>
     </g>
     <line fill="none" stroke="#000000" stroke-linecap="round" stroke-width="0.5" x1="7.133" x2="14.467" y1="3.96" y2="3.96"/>
     <line fill="none" id="connector0pin" stroke="#787878" stroke-linecap="round" stroke-width="0.75" x1="0.35" x2="7.55" y1="3.96" y2="3.96"/>
     <g fill="none" id="connector0terminal" points="1.019,4.319,0,4.304,0,3.632,1.019,3.616"/>
     <g transform="matrix(1, 0, 0, 1, 1.1047, 2.9092)">
      <text fill="#8C8C8C" font-family="'DroidSans'" font-size="2.5">1</text>
     </g>
     <line fill="none" id="connector1pin" stroke="#787878" stroke-linecap="round" stroke-width="0.75" x1="21.25" x2="14.05" y1="3.96" y2="3.96"/>
     <g fill="none" id="connector1terminal" points="20.534,3.632,20.534,4.288,21.6,4.272,21.6,3.632"/>
     <g transform="matrix(1, 0, 0, 1, 19.4973, 2.9092)">
      <text fill="#8C8C8C" font-family="'DroidSans'" font-size="2.5">2</text>
     </g>
    </g>
   </g>
  </g>
 </g>
 <g partID="855153050">
  <g transform="translate(194.443,34.4083)">
   <g gorn="0.4" id="schematic">
    <line fill="none" gorn="0.4.0" id="line5" stroke="#000000" stroke-linecap="round" stroke-width="0.7" x1="19.266" x2="15.667" y1="28.802" y2="28.802"/>
    <line fill="none" gorn="0.4.1" id="line7" stroke="#000000" stroke-linecap="round" stroke-width="0.7" x1="15.667" x2="12.066" y1="28.802" y2="28.802"/>
    <polygon fill="#FFFFFF" gorn="0.4.2" id="polygon9" points="15.667,28.802,12.066,21.601,15.667,21.601,19.266,21.601" stroke="#000000" stroke-linecap="round" stroke-width="0.7"/>
    <line fill="none" gorn="0.4.3" id="line11" stroke="#000000" stroke-linecap="round" stroke-width="0.45" x1="15.667" x2="15.667" y1="21.601" y2="28.802"/>
    <polyline fill="none" gorn="0.4.4" id="connector1pin_1_" points="7.36,36,15.667,36,15.667,28.802" stroke="#000000" stroke-linecap="round" stroke-width="0.7"/>
    <polyline fill="none" gorn="0.4.5" id="connector0pin_1_" points="7.36,14.4,15.667,14.4,15.667,21.601" stroke="#000000" stroke-linecap="round" stroke-width="0.7"/>
    <rect fill="none" gorn="0.4.6" height="1.2" id="rect15" width="7.2" x="50.399" y="35.4"/>
    <g fill="none" gorn="0.4.7" height="1.229" id="connector0terminal" width="0.611" x="0" y="13.786"/>
    <g fill="none" gorn="0.4.8" height="1.227" id="connector1terminal" width="0.611" x="0" y="35.388"/>
    <g fill="none" gorn="0.4.9" height="1.2" id="connector5terminal" width="0.6" x="57" y="35.4"/>
    <g fill="none" gorn="0.4.10" height="1.2" id="connector3terminal" width="0.6" x="57" y="13.8"/>
    <line fill="none" gorn="0.4.11" id="connector1pin" stroke="#787878" stroke-linecap="round" stroke-linejoin="round" stroke-width="0.7" x1="0" x2="7.2" y1="36" y2="36"/>
    <line fill="none" gorn="0.4.12" id="connector0pin" stroke="#787878" stroke-linecap="round" stroke-linejoin="round" stroke-width="0.7" x1="0" x2="7.2" y1="14.4" y2="14.4"/>
    <g transform="matrix(1, 0, 0, 1, 2.7751, 12.7263)">
     <g>
      <g>
       <g>
        <text fill="#787878" font-family="DroidSans" font-size="2" gorn="0.4.13.0.0.0" id="text23">1</text>
       </g>
      </g>
     </g>
    </g>
    <g transform="matrix(1, 0, 0, 1, 2.7751, 34.6501)">
     <g>
      <g>
       <g>
        <text fill="#787878" font-family="DroidSans" font-size="2" gorn="0.4.14.0.0.0" id="text25">2</text>
       </g>
      </g>
     </g>
    </g>
    <line fill="none" gorn="0.4.15" id="line27" stroke="#000000" stroke-linecap="round" stroke-width="0.7" x1="38.625" x2="38.625" y1="19.531" y2="30.331"/>
    <polyline fill="none" gorn="0.4.16" id="connector1pin_4_" points="38.625,25.777,45.125,29.866,45.125,36,50.239,36" stroke="#000000" stroke-linecap="round" stroke-width="0.7"/>
    <polyline fill="none" gorn="0.4.17" id="connector1pin_2_" points="50.239,14.4,45.125,14.4,45.125,19.531,38.625,23.421" stroke="#000000" stroke-linecap="round" stroke-width="0.7"/>
    <line fill="none" gorn="0.4.18" id="connector5pin" stroke="#787878" stroke-linecap="round" stroke-linejoin="round" stroke-width="0.7" x1="50.399" x2="57.6" y1="36" y2="36"/>
    <line fill="none" gorn="0.4.19" id="connector3pin" stroke="#787878" stroke-linecap="round" stroke-linejoin="round" stroke-width="0.7" x1="50.399" x2="57.6" y1="14.4" y2="14.4"/>
    <g transform="matrix(1, 0, 0, 1, 53.1418, 12.7263)">
     <g>
      <g>
       <g>
        <text fill="#787878" font-family="DroidSans" font-size="2" gorn="0.4.20.0.0.0" id="text33">4</text>
       </g>
      </g>
     </g>
    </g>
    <g transform="matrix(1, 0, 0, 1, 53.1418, 34.6501)">
     <g>
      <g>
       <g>
        <text fill="#787878" font-family="DroidSans" font-size="2" gorn="0.4.21.0.0.0" id="text35">3</text>
       </g>
      </g>
     </g>
    </g>
    <line fill="none" gorn="0.4.22" id="line39" stroke="#000000" stroke-linecap="round" stroke-width="0.45" x1="23.767" x2="21.427" y1="26.101" y2="23.76"/>
    <line fill="none" gorn="0.4.23" id="line41" stroke="#000000" stroke-linecap="round" stroke-width="0.45" x1="23.406" x2="21.066" y1="29.341" y2="27.001"/>
    <path d="M22.866,26.637l1.438,-1.438l1.08,2.521L22.866,26.637z" gorn="0.4.24" id="path43"/>
    <path d="M22.509,29.878l1.438,-1.438l1.08,2.521L22.509,29.878z" gorn="0.4.25" id="path45"/>
    <path d="M41.498,28.738l1.111,-1.704l1.577,2.243L41.498,28.738z" gorn="0.4.26" id="path47"/>
   </g>
  </g>
 </g>
 <g partID="855256900">
  <g transform="translate(136.193,31.3122)">
   <g id="schematic" >
    <line class="other" stroke="#000000" stroke-linecap="round" stroke-width="0.432002" x1="7.55002" x2="8.63003"  y1="3.096" y2="0.216"/>
    <line class="other" stroke="#000000" stroke-linecap="round" stroke-width="0.432002" x1="8.63003" x2="10.43"  y1="0.216" y2="5.976"/>
    <line class="other" stroke="#000000" stroke-linecap="round" stroke-width="0.432002" x1="10.43" x2="12.23"  y1="5.976" y2="0.216"/>
    <line class="other" stroke="#000000" stroke-linecap="round" stroke-width="0.432002" x1="12.23" x2="14.03"  y1="0.216" y2="5.976"/>
    <line class="other" stroke="#000000" stroke-linecap="round" stroke-width="0.432002" x1="14.03" x2="15.8301"  y1="5.976" y2="0.216"/>
    <line class="other" stroke="#000000" stroke-linecap="round" stroke-width="0.432002" x1="15.8301" x2="17.6301"  y1="0.216" y2="5.976"/>
    <line class="other" stroke="#000000" stroke-linecap="round" stroke-width="0.432002" x1="17.6301" x2="19.4301"  y1="5.976" y2="0.216"/>
    <line class="other" stroke="#000000" stroke-linecap="round" stroke-width="0.432002" x1="19.4301" x2="21.2301"  y1="0.216" y2="5.976"/>
    <line class="other" stroke="#000000" stroke-linecap="round" stroke-width="0.432002" x1="21.2301" x2="21.9501"  y1="5.976" y2="3.096"/>
    <line class="pin" connectorname="2" id="connector1pin" stroke="#787878" stroke-linecap="round" stroke-width="0.700001" x1="29.1502" x2="21.9501"  y1="3.096" y2="3.096"/>
    <g class="terminal" fill="none" height="0.000283465" id="connector1terminal" stroke="none" stroke-width="0" width="0.000283466" x="29.1502"  y="3.096"/>
    <text class="text" fill="#8c8c8c" font-family="'Droid Sans'" font-size="2.50001" stroke="none" stroke-width="0" text-anchor="middle" x="25.5501"  y="2.046">2</text>
    <line class="pin" connectorname="1" id="connector0pin" stroke="#787878" stroke-linecap="round" stroke-width="0.700001" x1="0.350001" x2="7.55002"  y1="3.096" y2="3.096"/>
    <g class="terminal" fill="none" height="0.000283465" id="connector0terminal" stroke="none" stroke-width="0" width="0.000283466" x="0.350001"  y="3.096"/>
    <text class="text" fill="#8c8c8c" font-family="'Droid Sans'" font-size="2.50001" stroke="none" stroke-width="0" text-anchor="middle" x="3.95001"  y="2.046">1</text>
   </g>
  </g>
 </g>
 <g partID="855255060">
  <g transform="translate(136.193,45.7122)">
   <g id="schematic" >
    <line class="other" stroke="#000000" stroke-linecap="round" stroke-width="0.432002" x1="7.55002" x2="8.63003"  y1="3.096" y2="0.216"/>
    <line class="other" stroke="#000000" stroke-linecap="round" stroke-width="0.432002" x1="8.63003" x2="10.43"  y1="0.216" y2="5.976"/>
    <line class="other" stroke="#000000" stroke-linecap="round" stroke-width="0.432002" x1="10.43" x2="12.23"  y1="5.976" y2="0.216"/>
    <line class="other" stroke="#000000" stroke-linecap="round" stroke-width="0.432002" x1="12.23" x2="14.03"  y1="0.216" y2="5.976"/>
    <line class="other" stroke="#000000" stroke-linecap="round" stroke-width="0.432002" x1="14.03" x2="15.8301"  y1="5.976" y2="0.216"/>
    <line class="other" stroke="#000000" stroke-linecap="round" stroke-width="0.432002" x1="15.8301" x2="17.6301"  y1="0.216" y2="5.976"/>
    <line class="other" stroke="#000000" stroke-linecap="round" stroke-width="0.432002" x1="17.6301" x2="19.4301"  y1="5.976" y2="0.216"/>
    <line class="other" stroke="#000000" stroke-linecap="round" stroke-width="0.432002" x1="19.4301" x2="21.2301"  y1="0.216" y2="5.976"/>
    <line class="other" stroke="#000000" stroke-linecap="round" stroke-width="0.432002" x1="21.2301" x2="21.9501"  y1="5.976" y2="3.096"/>
    <line class="pin" connectorname="2" id="connector1pin" stroke="#787878" stroke-linecap="round" stroke-width="0.700001" x1="29.1502" x2="21.9501"  y1="3.096" y2="3.096"/>
    <g class="terminal" fill="none" height="0.000283465" id="connector1terminal" stroke="none" stroke-width="0" width="0.000283466" x="29.1502"  y="3.096"/>
    <text class="text" fill="#8c8c8c" font-family="'Droid Sans'" font-size="2.50001" stroke="none" stroke-width="0" text-anchor="middle" x="25.5501"  y="2.046">2</text>
    <line class="pin" connectorname="1" id="connector0pin" stroke="#787878" stroke-linecap="round" stroke-width="0.700001" x1="0.350001" x2="7.55002"  y1="3.096" y2="3.096"/>
    <g class="terminal" fill="none" height="0.000283465" id="connector0terminal" stroke="none" stroke-width="0" width="0.000283466" x="0.350001"  y="3.096"/>
    <text class="text" fill="#8c8c8c" font-family="'Droid Sans'" font-size="2.50001" stroke="none" stroke-width="0" text-anchor="middle" x="3.95001"  y="2.046">1</text>
   </g>
  </g>
 </g>
 <g partID="855225880">
  <g transform="translate(121.783,48.4582)">
   <g id="schematic">
    <line class="other" stroke="#000000" stroke-linecap="round" stroke-width="0.72" x1="0.36" x2="14.76" y1="7.54999" y2="7.54999"/>
    <line class="other" stroke="#000000" stroke-linecap="round" stroke-width="0.432" x1="7.56" x2="7.56" y1="10.43" y2="14.75"/>
    <path class="other" d="M7.56,10.3846A11.4922,11.4922,0,0,1,14.616,12.806" fill="none" stroke="#000000" stroke-width="0.72"/>
    <path class="other" d="M0.567213,12.7952A11.5191,11.5191,0,0,1,7.56,10.4303" fill="none" stroke="#000000" stroke-width="0.72"/>
    <rect class="other" fill="#000000" height="0.36" stroke="none" stroke-linecap="round" stroke-width="0" width="2.52" x="1.17354" y="5.29645"/>
    <rect class="other" fill="#000000" height="2.52" stroke="none" stroke-linecap="round" stroke-width="0" width="0.36" x="2.25354" y="4.21645"/>
    <line class="pin" connectorname="+" id="connector1pin" stroke="#787878" stroke-linecap="round" stroke-width="0.699999" x1="7.56" x2="7.56" y1="0.349999" y2="7.54999"/>
    <g class="terminal" fill="none" height="0.000283465" id="connector1terminal" stroke="none" stroke-width="0" width="0.000283465" x="7.56" y="0.349999"/>
    <g transform="matrix(1, 0, 0, 1, 6.50999, 3.94999)">
     <g>
      <g transform="rotate(270)">
       <g>
        <text class="text" fill="#8c8c8c" font-family="'Droid Sans'" font-size="2.5" stroke="none" stroke-width="0" text-anchor="middle" x="0" y="0">2</text>
       </g>
      </g>
     </g>
    </g>
    <line class="pin" connectorname="-" id="connector0pin" stroke="#787878" stroke-linecap="round" stroke-width="0.699999" x1="7.56" x2="7.56" y1="21.95" y2="14.75"/>
    <g class="terminal" fill="none" height="0.000283465" id="connector0terminal" stroke="none" stroke-width="0" width="0.000283465" x="7.56" y="21.95"/>
    <g transform="matrix(1, 0, 0, 1, 6.50999, 18.35)">
     <g>
      <g transform="rotate(270)">
       <g>
        <text class="text" fill="#8c8c8c" font-family="'Droid Sans'" font-size="2.5" stroke="none" stroke-width="0" text-anchor="middle" x="0" y="0">1</text>
       </g>
      </g>
     </g>
    </g>
   </g>
  </g>
 </g>
 <g partID="855264350">
  <g transform="translate(272.983,5.24832)">
   <g id="schematic" >
    <rect fill="none" height="64.8" id="symbol" stroke="#000000" stroke-linecap="round" stroke-linejoin="round" stroke-width="0.72" width="57.6" x="7.56"  y="0.36"/>
    <text fill="#000000" font-family="'Droid Sans'" font-size="4.32" id="label" text-anchor="middle" x="36.36"  y="32.76">esp32 c3 super mini</text>
    <text fill="#555555" font-family="'Droid Sans'" font-size="2.52" id="pin0num" text-anchor="end" x="5.4"  y="6.12">1</text>
    <text fill="#555555" font-family="'Droid Sans'" font-size="3.528" id="pin0label" text-anchor="start" x="9"  y="8.424">5</text>
    <text fill="#555555" font-family="'Droid Sans'" font-size="2.52" id="pin1num" text-anchor="end" x="5.4"  y="13.32">2</text>
    <text fill="#555555" font-family="'Droid Sans'" font-size="3.528" id="pin1label" text-anchor="start" x="9"  y="15.624">6</text>
    <text fill="#555555" font-family="'Droid Sans'" font-size="2.52" id="pin2num" text-anchor="end" x="5.4"  y="20.52">3</text>
    <text fill="#555555" font-family="'Droid Sans'" font-size="3.528" id="pin2label" text-anchor="start" x="9"  y="22.824">7</text>
    <text fill="#555555" font-family="'Droid Sans'" font-size="2.52" id="pin3num" text-anchor="end" x="5.4"  y="27.72">4</text>
    <text fill="#555555" font-family="'Droid Sans'" font-size="3.528" id="pin3label" text-anchor="start" x="9"  y="30.024">8</text>
    <text fill="#555555" font-family="'Droid Sans'" font-size="2.52" id="pin4num" text-anchor="end" x="5.4"  y="34.92">5</text>
    <text fill="#555555" font-family="'Droid Sans'" font-size="3.528" id="pin4label" text-anchor="start" x="9"  y="37.224">9</text>
    <text fill="#555555" font-family="'Droid Sans'" font-size="2.52" id="pin5num" text-anchor="end" x="5.4"  y="42.12">6</text>
    <text fill="#555555" font-family="'Droid Sans'" font-size="3.528" id="pin5label" text-anchor="start" x="9"  y="44.424">10</text>
    <text fill="#555555" font-family="'Droid Sans'" font-size="2.52" id="pin6num" text-anchor="end" x="5.4"  y="49.32">7</text>
    <text fill="#555555" font-family="'Droid Sans'" font-size="3.528" id="pin6label" text-anchor="start" x="9"  y="51.624">20</text>
    <text fill="#555555" font-family="'Droid Sans'" font-size="2.52" id="pin7num" text-anchor="end" x="5.4"  y="56.52">8</text>
    <text fill="#555555" font-family="'Droid Sans'" font-size="3.528" id="pin7label" text-anchor="start" x="9"  y="58.824">21</text>
    <text fill="#555555" font-family="'Droid Sans'" font-size="2.52" id="pin8num" text-anchor="start" x="67.32"  y="56.52">9</text>
    <text fill="#555555" font-family="'Droid Sans'" font-size="3.528" id="pin8label" text-anchor="end" x="63.72"  y="8.39014">5V</text>
    <text fill="#555555" font-family="'Droid Sans'" font-size="2.52" id="pin9num" text-anchor="start" x="67.32"  y="49.32">10</text>
    <text fill="#555555" font-family="'Droid Sans'" font-size="3.528" id="pin9label" text-anchor="end" x="63.72"  y="15.5867">GND</text>
    <text fill="#555555" font-family="'Droid Sans'" font-size="2.52" id="pin10num" text-anchor="start" x="67.32"  y="42.12">11</text>
    <text fill="#555555" font-family="'Droid Sans'" font-size="3.528" id="pin10label" text-anchor="end" x="63.72"  y="22.7867">3.3V</text>
    <text fill="#555555" font-family="'Droid Sans'" font-size="2.52" id="pin11num" text-anchor="start" x="67.32"  y="34.92">12</text>
    <text fill="#555555" font-family="'Droid Sans'" font-size="3.528" id="pin11label" text-anchor="end" x="63.72"  y="29.9643">4</text>
    <text fill="#555555" font-family="'Droid Sans'" font-size="2.52" id="pin12num" text-anchor="start" x="67.32"  y="27.72">13</text>
    <text fill="#555555" font-family="'Droid Sans'" font-size="3.528" id="pin12label" text-anchor="end" x="63.72"  y="37.1867">3</text>
    <text fill="#555555" font-family="'Droid Sans'" font-size="2.52" id="pin13num" text-anchor="start" x="67.32"  y="20.52">14</text>
    <text fill="#555555" font-family="'Droid Sans'" font-size="3.528" id="pin13label" text-anchor="end" x="63.72"  y="44.3867">2</text>
    <text fill="#555555" font-family="'Droid Sans'" font-size="2.52" id="pin14num" text-anchor="start" x="67.32"  y="13.32">15</text>
    <text fill="#555555" font-family="'Droid Sans'" font-size="3.528" id="pin14label" text-anchor="end" x="63.72"  y="51.6225">1</text>
    <text fill="#555555" font-family="'Droid Sans'" font-size="2.52" id="pin15num" text-anchor="start" x="67.32"  y="6.12">16</text>
    <text fill="#555555" font-family="'Droid Sans'" font-size="3.528" id="pin15label" text-anchor="end" x="63.72"  y="58.7901">0</text>
    <line fill="none" id="connector0pin" stroke="#555555" stroke-linecap="round" stroke-width="0.72" x1="7.56" x2="0.36"  y1="7.56" y2="7.56"/>
    <g fill="none" height="0.72" id="connector0terminal" stroke="none" stroke-width="0" width="0.72" x="0"  y="7.2"/>
    <line fill="none" id="connector1pin" stroke="#555555" stroke-linecap="round" stroke-width="0.72" x1="7.56" x2="0.36"  y1="14.76" y2="14.76"/>
    <g fill="none" height="0.72" id="connector1terminal" stroke="none" stroke-width="0" width="0.72" x="0"  y="14.4"/>
    <line fill="none" id="connector2pin" stroke="#555555" stroke-linecap="round" stroke-width="0.72" x1="7.56" x2="0.36"  y1="21.96" y2="21.96"/>
    <g fill="none" height="0.72" id="connector2terminal" stroke="none" stroke-width="0" width="0.72" x="0"  y="21.6"/>
    <line fill="none" id="connector3pin" stroke="#555555" stroke-linecap="round" stroke-width="0.72" x1="7.56" x2="0.36"  y1="29.16" y2="29.16"/>
    <g fill="none" height="0.72" id="connector3terminal" stroke="none" stroke-width="0" width="0.72" x="0"  y="28.8"/>
    <line fill="none" id="connector4pin" stroke="#555555" stroke-linecap="round" stroke-width="0.72" x1="7.56" x2="0.36"  y1="36.36" y2="36.36"/>
    <g fill="none" height="0.72" id="connector4terminal" stroke="none" stroke-width="0" width="0.72" x="0"  y="36"/>
    <line fill="none" id="connector5pin" stroke="#555555" stroke-linecap="round" stroke-width="0.72" x1="7.56" x2="0.36"  y1="43.56" y2="43.56"/>
    <g fill="none" height="0.72" id="connector5terminal" stroke="none" stroke-width="0" width="0.72" x="0"  y="43.2"/>
    <line fill="none" id="connector6pin" stroke="#555555" stroke-linecap="round" stroke-width="0.72" x1="7.56" x2="0.36"  y1="50.76" y2="50.76"/>
    <g fill="none" height="0.72" id="connector6terminal" stroke="none" stroke-width="0" width="0.72" x="0"  y="50.4"/>
    <line fill="none" id="connector7pin" stroke="#555555" stroke-linecap="round" stroke-width="0.72" x1="7.56" x2="0.36"  y1="57.96" y2="57.96"/>
    <g fill="none" height="0.72" id="connector7terminal" stroke="none" stroke-width="0" width="0.72" x="0"  y="57.6"/>
    <line fill="none" id="connector8pin" stroke="#555555" stroke-linecap="round" stroke-width="0.72" x1="65.16" x2="72.36"  y1="57.96" y2="57.96"/>
    <g fill="none" height="0.72" id="connector8terminal" stroke="none" stroke-width="0" width="0.72" x="72"  y="57.6"/>
    <line fill="none" id="connector9pin" stroke="#555555" stroke-linecap="round" stroke-width="0.72" x1="65.16" x2="72.36"  y1="50.76" y2="50.76"/>
    <g fill="none" height="0.72" id="connector9terminal" stroke="none" stroke-width="0" width="0.72" x="72"  y="50.4"/>
    <line fill="none" id="connector10pin" stroke="#555555" stroke-linecap="round" stroke-width="0.72" x1="65.16" x2="72.36"  y1="43.56" y2="43.56"/>
    <g fill="none" height="0.72" id="connector10terminal" stroke="none" stroke-width="0" width="0.72" x="72"  y="43.2"/>
    <line fill="none" id="connector11pin" stroke="#555555" stroke-linecap="round" stroke-width="0.72" x1="65.16" x2="72.36"  y1="36.36" y2="36.36"/>
    <g fill="none" height="0.72" id="connector11terminal" stroke="none" stroke-width="0" width="0.72" x="72"  y="36"/>
    <line fill="none" id="connector12pin" stroke="#555555" stroke-linecap="round" stroke-width="0.72" x1="65.16" x2="72.36"  y1="29.16" y2="29.16"/>
    <g fill="none" height="0.72" id="connector12terminal" stroke="none" stroke-width="0" width="0.72" x="72"  y="28.8"/>
    <line fill="none" id="connector13pin" stroke="#555555" stroke-linecap="round" stroke-width="0.72" x1="65.16" x2="72.36"  y1="21.96" y2="21.96"/>
    <g fill="none" height="0.72" id="connector13terminal" stroke="none" stroke-width="0" width="0.72" x="72"  y="21.6"/>
    <line fill="none" id="connector14pin" stroke="#555555" stroke-linecap="round" stroke-width="0.72" x1="65.16" x2="72.36"  y1="14.76" y2="14.76"/>
    <g fill="none" height="0.72" id="connector14terminal" stroke="none" stroke-width="0" width="0.72" x="72"  y="14.4"/>
    <line fill="none" id="connector15pin" stroke="#555555" stroke-linecap="round" stroke-width="0.72" x1="65.16" x2="72.36"  y1="7.56" y2="7.56"/>
    <g fill="none" height="0.72" id="connector15terminal" stroke="none" stroke-width="0" width="0.72" x="72"  y="7.2"/>
   </g>
  </g>
 </g>
 <g partID="855168450">
  <g transform="translate(356.218,15.8251)">
   <g id="schematicText" >
    <text fill="black" font-family="Droid Sans" font-size="7.2" id="label" stroke-width="0" text-anchor="middle" x="10.8" xml:space="preserve"  xmlns:xml="http://www.w3.org/XML/1998/namespace" y="6.48">GND</text>
   </g>
  </g>
 </g>
 <g partID="855168480">
  <g transform="translate(391.254,24.3109)">
   <g id="schematicText" >
    <text fill="black" font-family="Droid Sans" font-size="7.2" id="label" stroke-width="0" text-anchor="middle" x="14.4" xml:space="preserve"  xmlns:xml="http://www.w3.org/XML/1998/namespace" y="6.48">3.3V</text>
   </g>
  </g>
 </g>
 <g partID="855170000">
  <g transform="translate(11.394,46.0845)">
   <g transform="matrix(1,0,0,1.12701,0,0)">
    <g>
     <g id="schematicText">
      <text fill="black" font-family="Droid Sans" font-size="4.82144" id="label" stroke-width="0" text-anchor="middle" x="26.5179" xml:space="preserve" xmlns:xml="http://www.w3.org/XML/1998/namespace" y="4.3393">~8V/12V/24V</text>
     </g>
    </g>
   </g>
  </g>
 </g>
 <g partID="855268470">
  <g transform="translate(0,37.2904)">
   <g id="schematicText" >
    <text fill="black" font-family="Droid Sans" font-size="5.43379" id="label" stroke-width="0" text-anchor="middle" x="40.7534" xml:space="preserve"  xmlns:xml="http://www.w3.org/XML/1998/namespace" y="4.89043">Klingel (trafo)</text>
   </g>
  </g>
 </g>
 <g partID="855168510">
  <g transform="translate(246.641,49.748)">
   <g id="schematicText" >
    <text fill="black" font-family="Droid Sans" font-size="7.2" id="label" stroke-width="0" text-anchor="middle" x="14.4" xml:space="preserve"  xmlns:xml="http://www.w3.org/XML/1998/namespace" y="6.48">GPIO</text>
   </g>
  </g>
 </g>
 <g partID="855179500">
  <line stroke="#404040" stroke-linecap="round" stroke-width="0.699998" x1="194.748" x2="129.343" y1="70.4098" y2="70.4083"/>
 </g>
 <g partID="855264880">
  <line stroke="#404040" stroke-linecap="round" stroke-width="0.699998" x1="345.343" x2="352.384" y1="20.0083" y2="20.0271"/>
 </g>
 <circle cx="352.384" cy="20.0271" fill="black" r="0.72" stroke="none" stroke-width="0"/>
 <g partID="855264950">
  <line stroke="#404040" stroke-linecap="round" stroke-width="0.699998" x1="251.804" x2="251.743" y1="84.7357" y2="70.4083"/>
 </g>
 <circle cx="251.804" cy="84.7357" fill="black" r="0.72" stroke="none" stroke-width="0"/>
 <g partID="855265020">
  <line stroke="#404040" stroke-linecap="round" stroke-width="0.699998" x1="352.384" x2="302.094" y1="84.7357" y2="84.7357"/>
 </g>
 <circle cx="352.384" cy="84.7357" fill="black" r="0.72" stroke="none" stroke-width="0"/>
 <circle cx="302.094" cy="84.7357" fill="black" r="0.72" stroke="none" stroke-width="0"/>
 <g partID="855265200">
  <line stroke="#404040" stroke-linecap="round" stroke-width="0.699998" x1="352.384" x2="352.384" y1="20.0271" y2="84.7357"/>
 </g>
 <circle cx="352.384" cy="20.0271" fill="black" r="0.72" stroke="none" stroke-width="0"/>
 <circle cx="352.384" cy="84.7357" fill="black" r="0.72" stroke="none" stroke-width="0"/>
 <g partID="855266000">
  <line stroke="#404040" stroke-linecap="round" stroke-width="0.699998" x1="302.094" x2="251.804" y1="84.7357" y2="84.7357"/>
 </g>
 <circle cx="302.094" cy="84.7357" fill="black" r="0.72" stroke="none" stroke-width="0"/>
 <circle cx="251.804" cy="84.7357" fill="black" r="0.72" stroke="none" stroke-width="0"/>
 <g partID="855265090">
  <line stroke="#404040" stroke-linecap="round" stroke-width="0.699998" x1="273.343" x2="251.743" y1="48.8083" y2="48.8083"/>
 </g>
 <g partID="855265410">
  <line stroke="#404040" stroke-linecap="round" stroke-width="0.699998" x1="100.489" x2="79.293" y1="41.4982" y2="41.6083"/>
 </g>
 <circle cx="100.489" cy="41.4982" fill="black" r="0.72" stroke="none" stroke-width="0"/>
 <g partID="855265420">
  <line stroke="#404040" stroke-linecap="round" stroke-width="0.699998" x1="100.543" x2="100.489" y1="41.6083" y2="41.4982"/>
 </g>
 <circle cx="100.489" cy="41.4982" fill="black" r="0.72" stroke="none" stroke-width="0"/>
 <g partID="855265910">
  <line stroke="#404040" stroke-linecap="round" stroke-width="0.699998" x1="86.0703" x2="86.0703" y1="70.3357" y2="48.8834"/>
 </g>
 <circle cx="86.0703" cy="70.3357" fill="black" r="0.72" stroke="none" stroke-width="0"/>
 <circle cx="86.0703" cy="48.8834" fill="black" r="0.72" stroke="none" stroke-width="0"/>
 <g partID="855265730">
  <line stroke="#404040" stroke-linecap="round" stroke-width="0.699998" x1="129.343" x2="86.0703" y1="70.4083" y2="70.3357"/>
 </g>
 <circle cx="129.343" cy="70.4083" fill="black" r="0.72" stroke="none" stroke-width="0"/>
 <circle cx="86.0703" cy="70.3357" fill="black" r="0.72" stroke="none" stroke-width="0"/>
 <g partID="855265820">
  <line stroke="#404040" stroke-linecap="round" stroke-width="0.699998" x1="86.0703" x2="79.293" y1="48.8834" y2="48.8083"/>
 </g>
 <circle cx="86.0703" cy="48.8834" fill="black" r="0.72" stroke="none" stroke-width="0"/>
 <g partID="855267280">
  <line stroke="#404040" stroke-linecap="round" stroke-width="0.699998" x1="121.1" x2="129.42" y1="41.6008" y2="41.4794"/>
 </g>
 <circle cx="121.1" cy="41.6008" fill="black" r="1.44" stroke="none" stroke-width="0"/>
 <circle cx="129.42" cy="41.4794" fill="black" r="0.72" stroke="none" stroke-width="0"/>
 <g partID="855267430">
  <line stroke="#404040" stroke-linecap="round" stroke-width="0.699998" x1="129.42" x2="129.343" y1="41.4794" y2="48.8083"/>
 </g>
 <circle cx="129.42" cy="41.4794" fill="black" r="0.72" stroke="none" stroke-width="0"/>
 <g partID="855268080">
  <line stroke="#404040" stroke-linecap="round" stroke-width="0.699998" x1="136.543" x2="136.454" y1="48.8083" y2="41.4794"/>
 </g>
 <circle cx="136.454" cy="41.4794" fill="black" r="0.72" stroke="none" stroke-width="0"/>
 <g partID="855268150">
  <line stroke="#404040" stroke-linecap="round" stroke-width="0.699998" x1="136.454" x2="136.543" y1="41.4794" y2="34.4083"/>
 </g>
 <circle cx="136.454" cy="41.4794" fill="black" r="1.44" stroke="none" stroke-width="0"/>
 <g partID="855268220">
  <line stroke="#404040" stroke-linecap="round" stroke-width="0.699998" x1="136.454" x2="121.1" y1="41.4794" y2="41.6008"/>
 </g>
 <circle cx="136.454" cy="41.4794" fill="black" r="0.72" stroke="none" stroke-width="0"/>
 <circle cx="121.1" cy="41.6008" fill="black" r="1.44" stroke="none" stroke-width="0"/>
 <g partID="855297670">
  <line stroke="#404040" stroke-linecap="round" stroke-width="0.699998" x1="165.343" x2="165.343" y1="48.8083" y2="34.4083"/>
 </g>
 <circle cx="165.343" cy="48.8083" fill="black" r="1.44" stroke="none" stroke-width="0"/>
 <circle cx="165.343" cy="34.4083" fill="black" r="1.44" stroke="none" stroke-width="0"/>
 <g partID="855297740">
  <line stroke="#404040" stroke-linecap="round" stroke-width="0.699998" x1="165.343" x2="165.307" y1="48.8083" y2="41.5188"/>
 </g>
 <circle cx="165.343" cy="48.8083" fill="black" r="1.44" stroke="none" stroke-width="0"/>
 <circle cx="165.307" cy="41.5188" fill="black" r="1.44" stroke="none" stroke-width="0"/>
 <g partID="855297860">
  <line stroke="#404040" stroke-linecap="round" stroke-width="0.699998" x1="187.049" x2="194.748" y1="48.8474" y2="48.8088"/>
 </g>
 <circle cx="187.049" cy="48.8474" fill="black" r="0.72" stroke="none" stroke-width="0"/>
 <g partID="855297810">
  <line stroke="#404040" stroke-linecap="round" stroke-width="0.699998" x1="165.307" x2="187.049" y1="41.5188" y2="41.5188"/>
 </g>
 <circle cx="165.307" cy="41.5188" fill="black" r="0.72" stroke="none" stroke-width="0"/>
 <circle cx="187.049" cy="41.5188" fill="black" r="0.72" stroke="none" stroke-width="0"/>
 <g partID="855297990">
  <line stroke="#404040" stroke-linecap="round" stroke-width="0.699998" x1="187.049" x2="187.049" y1="41.5188" y2="48.8474"/>
 </g>
 <circle cx="187.049" cy="41.5188" fill="black" r="0.72" stroke="none" stroke-width="0"/>
 <circle cx="187.049" cy="48.8474" fill="black" r="0.72" stroke="none" stroke-width="0"/>
 <g id="partLabel" partID="855151290">
  <g transform="translate(63.207,30.275)">
   <g fill="#000000" fill-opacity="1" font-family="'DroidSans'" font-size="5.000" font-style="normal" font-weight="normal" id="schematicLabel" stroke="none">
    <text x="0" y="5.000">J2</text>
   </g>
  </g>
 </g>
 <g id="partLabel" partID="855152830">
  <g transform="translate(96.615,31.459)">
   <g fill="#000000" fill-opacity="1" font-family="'DroidSans'" font-size="5.000" font-style="normal" font-weight="normal" id="schematicLabel" stroke="none">
    <text x="0" y="5.000">D1</text>
   </g>
  </g>
 </g>
 <g id="partLabel" partID="855153050">
  <g transform="translate(223.409,33.9079)">
   <g fill="#000000" fill-opacity="1" font-family="'DroidSans'" font-size="5.000" font-style="normal" font-weight="normal" id="schematicLabel" stroke="none">
    <text x="0" y="5.000">U1</text>
   </g>
  </g>
 </g>
 <g id="partLabel" partID="855256900">
  <g transform="translate(144.055,6.34699)">
   <g fill="#000000" fill-opacity="1" font-family="'DroidSans'" font-size="5.000" font-style="normal" font-weight="normal" id="schematicLabel" stroke="none">
    <text x="0" y="5.000">R2</text>
    <text x="0" y="10.000">&#xb1;5%</text>
    <text x="0" y="15.000">0.25W</text>
    <text x="0" y="20.000">3.3k&#x3a9;</text>
   </g>
  </g>
 </g>
 <g id="partLabel" partID="855255060">
  <g transform="translate(168.973,43.6735)">
   <g fill="#000000" fill-opacity="1" font-family="'DroidSans'" font-size="5.000" font-style="normal" font-weight="normal" id="schematicLabel" stroke="none">
    <text x="0" y="5.000">R1</text>
    <text x="0" y="10.000">&#xb1;5%</text>
    <text x="0" y="15.000">0.25W</text>
    <text x="0" y="20.000">3.3k&#x3a9;</text>
   </g>
  </g>
 </g>
 <g id="partLabel" partID="855225880">
  <g transform="translate(105.54,50.7848)">
   <g fill="#000000" fill-opacity="1" font-family="'DroidSans'" font-size="5.000" font-style="normal" font-weight="normal" id="schematicLabel" stroke="none">
    <text x="0" y="5.000">C4</text>
    <text x="0" y="10.000">47&#xb5;F</text>
    <text x="0" y="15.000">35V</text>
   </g>
  </g>
 </g>
 <g id="partLabel" partID="855264350">
  <g transform="translate(315.459,0)">
   <g fill="#000000" fill-opacity="1" font-family="'DroidSans'" font-size="5.000" font-style="normal" font-weight="normal" id="schematicLabel" stroke="none">
    <text x="0" y="5.000">A1</text>
   </g>
  </g>
 </g>
</svg>
